<svg
   width="20.015551mm"
   height="14.55711mm"
   viewBox="0 0 20.015551 14.55711"
   version="1.1"
   id="svg22767"
   inkscape:version="1.2.2 (732a01da63, 2022-12-09)"
   sodipodi:docname="logo-rcb.svg"
   xmlns:inkscape="http://www.inkscape.org/namespaces/inkscape"
   xmlns:sodipodi="http://sodipodi.sourceforge.net/DTD/sodipodi-0.dtd"
   xmlns="http://www.w3.org/2000/svg"
   xmlns:svg="http://www.w3.org/2000/svg">
  <sodipodi:namedview
     id="namedview22769"
     pagecolor="#ffffff"
     bordercolor="#999999"
     borderopacity="1"
     inkscape:showpageshadow="0"
     inkscape:pageopacity="0"
     inkscape:pagecheckerboard="0"
     inkscape:deskcolor="#d1d1d1"
     inkscape:document-units="mm"
     showgrid="false"
     inkscape:zoom="10.35098"
     inkscape:cx="29.900551"
     inkscape:cy="32.170867"
     inkscape:window-width="2560"
     inkscape:window-height="1529"
     inkscape:window-x="-8"
     inkscape:window-y="-8"
     inkscape:window-maximized="1"
     inkscape:current-layer="layer1" />
  <defs
     id="defs22764">
    <clipPath
       clipPathUnits="userSpaceOnUse"
       id="clipPath24253">
      <g
         id="g24259">
        <g
           id="g24257">
          <path
             d="M -56.442049,-160.30478 H 153.55985 V 136.6953 H -56.442049 Z"
             id="path24255"
             style="stroke-width:0.352778" />
        </g>
      </g>
    </clipPath>
    <clipPath
       clipPathUnits="userSpaceOnUse"
       id="clipPath24268">
      <g
         id="g24274">
        <g
           id="g24272">
          <path
             d="M -56.442049,-160.30478 H 153.55985 V 136.6953 H -56.442049 Z"
             id="path24270"
             style="stroke-width:0.352778" />
        </g>
      </g>
    </clipPath>
    <clipPath
       clipPathUnits="userSpaceOnUse"
       id="clipPath24283">
      <g
         id="g24289">
        <g
           id="g24287">
          <path
             d="M -56.442049,-160.30478 H 153.55985 V 136.6953 H -56.442049 Z"
             id="path24285"
             style="stroke-width:0.352778" />
        </g>
      </g>
    </clipPath>
    <clipPath
       clipPathUnits="userSpaceOnUse"
       id="clipPath24298">
      <g
         id="g24304">
        <g
           id="g24302">
          <path
             d="M -56.442049,-160.30478 H 153.55985 V 136.6953 H -56.442049 Z"
             id="path24300"
             style="stroke-width:0.352778" />
        </g>
      </g>
    </clipPath>
    <clipPath
       clipPathUnits="userSpaceOnUse"
       id="clipPath24313">
      <g
         id="g24319">
        <g
           id="g24317">
          <path
             d="M -56.442049,-160.30478 H 153.55985 V 136.6953 H -56.442049 Z"
             id="path24315"
             style="stroke-width:0.352778" />
        </g>
      </g>
    </clipPath>
    <clipPath
       clipPathUnits="userSpaceOnUse"
       id="clipPath24328">
      <g
         id="g24334">
        <g
           id="g24332">
          <path
             d="M -56.442049,-160.30478 H 153.55985 V 136.6953 H -56.442049 Z"
             id="path24330"
             style="stroke-width:0.352778" />
        </g>
      </g>
    </clipPath>
    <clipPath
       clipPathUnits="userSpaceOnUse"
       id="clipPath24343">
      <g
         id="g24349">
        <g
           id="g24347">
          <path
             d="M -56.442049,-160.30478 H 153.55985 V 136.6953 H -56.442049 Z"
             id="path24345"
             style="stroke-width:0.352778" />
        </g>
      </g>
    </clipPath>
    <clipPath
       clipPathUnits="userSpaceOnUse"
       id="clipPath24358">
      <g
         id="g24364">
        <g
           id="g24362">
          <path
             d="M -56.442049,-160.30478 H 153.55985 V 136.6953 H -56.442049 Z"
             id="path24360"
             style="stroke-width:0.352778" />
        </g>
      </g>
    </clipPath>
    <clipPath
       clipPathUnits="userSpaceOnUse"
       id="clipPath24373">
      <g
         id="g24379">
        <g
           id="g24377">
          <path
             d="M -56.442049,-160.30478 H 153.55985 V 136.6953 H -56.442049 Z"
             id="path24375"
             style="stroke-width:0.352778" />
        </g>
      </g>
    </clipPath>
    <clipPath
       clipPathUnits="userSpaceOnUse"
       id="clipPath24388">
      <g
         id="g24394">
        <g
           id="g24392">
          <path
             d="M -56.442049,-160.30478 H 153.55985 V 136.6953 H -56.442049 Z"
             id="path24390"
             style="stroke-width:0.352778" />
        </g>
      </g>
    </clipPath>
    <clipPath
       clipPathUnits="userSpaceOnUse"
       id="clipPath24403">
      <g
         id="g24409">
        <g
           id="g24407">
          <path
             d="M -56.442049,-160.30478 H 153.55985 V 136.6953 H -56.442049 Z"
             id="path24405"
             style="stroke-width:0.352778" />
        </g>
      </g>
    </clipPath>
    <clipPath
       clipPathUnits="userSpaceOnUse"
       id="clipPath24418">
      <g
         id="g24424">
        <g
           id="g24422">
          <path
             d="M -56.442049,-160.30478 H 153.55985 V 136.6953 H -56.442049 Z"
             id="path24420"
             style="stroke-width:0.352778" />
        </g>
      </g>
    </clipPath>
    <clipPath
       clipPathUnits="userSpaceOnUse"
       id="clipPath24433">
      <g
         id="g24439">
        <g
           id="g24437">
          <path
             d="M -56.442049,-160.30478 H 153.55985 V 136.6953 H -56.442049 Z"
             id="path24435"
             style="stroke-width:0.352778" />
        </g>
      </g>
    </clipPath>
    <clipPath
       clipPathUnits="userSpaceOnUse"
       id="clipPath24448">
      <g
         id="g24454">
        <g
           id="g24452">
          <path
             d="M -56.442049,-160.30478 H 153.55985 V 136.6953 H -56.442049 Z"
             id="path24450"
             style="stroke-width:0.352778" />
        </g>
      </g>
    </clipPath>
    <clipPath
       clipPathUnits="userSpaceOnUse"
       id="clipPath24463">
      <g
         id="g24469">
        <g
           id="g24467">
          <path
             d="M -56.442049,-160.30478 H 153.55985 V 136.6953 H -56.442049 Z"
             id="path24465"
             style="stroke-width:0.352778" />
        </g>
      </g>
    </clipPath>
    <clipPath
       clipPathUnits="userSpaceOnUse"
       id="clipPath24478">
      <g
         id="g24484">
        <g
           id="g24482">
          <path
             d="M -56.442049,-160.30478 H 153.55985 V 136.6953 H -56.442049 Z"
             id="path24480"
             style="stroke-width:0.352778" />
        </g>
      </g>
    </clipPath>
    <clipPath
       clipPathUnits="userSpaceOnUse"
       id="clipPath24493">
      <g
         id="g24499">
        <g
           id="g24497">
          <path
             d="M -56.442049,-160.30478 H 153.55985 V 136.6953 H -56.442049 Z"
             id="path24495"
             style="stroke-width:0.352778" />
        </g>
      </g>
    </clipPath>
    <clipPath
       clipPathUnits="userSpaceOnUse"
       id="clipPath24508">
      <g
         id="g24514">
        <g
           id="g24512">
          <path
             d="M -56.442049,-160.30478 H 153.55985 V 136.6953 H -56.442049 Z"
             id="path24510"
             style="stroke-width:0.352778" />
        </g>
      </g>
    </clipPath>
    <clipPath
       clipPathUnits="userSpaceOnUse"
       id="clipPath24523">
      <g
         id="g24529">
        <g
           id="g24527">
          <path
             d="M -56.442049,-160.30478 H 153.55985 V 136.6953 H -56.442049 Z"
             id="path24525"
             style="stroke-width:0.352778" />
        </g>
      </g>
    </clipPath>
    <clipPath
       clipPathUnits="userSpaceOnUse"
       id="clipPath24538">
      <g
         id="g24544">
        <g
           id="g24542">
          <path
             d="M -56.442049,-160.30478 H 153.55985 V 136.6953 H -56.442049 Z"
             id="path24540"
             style="stroke-width:0.352778" />
        </g>
      </g>
    </clipPath>
    <clipPath
       clipPathUnits="userSpaceOnUse"
       id="clipPath24553">
      <g
         id="g24559">
        <g
           id="g24557">
          <path
             d="M -56.442049,-160.30478 H 153.55985 V 136.6953 H -56.442049 Z"
             id="path24555"
             style="stroke-width:0.352778" />
        </g>
      </g>
    </clipPath>
    <clipPath
       clipPathUnits="userSpaceOnUse"
       id="clipPath24568">
      <g
         id="g24574">
        <g
           id="g24572">
          <path
             d="M -56.442049,-160.30478 H 153.55985 V 136.6953 H -56.442049 Z"
             id="path24570"
             style="stroke-width:0.352778" />
        </g>
      </g>
    </clipPath>
    <clipPath
       clipPathUnits="userSpaceOnUse"
       id="clipPath24583">
      <g
         id="g24589">
        <g
           id="g24587">
          <path
             d="M -56.442049,-160.30478 H 153.55985 V 136.6953 H -56.442049 Z"
             id="path24585"
             style="stroke-width:0.352778" />
        </g>
      </g>
    </clipPath>
    <clipPath
       clipPathUnits="userSpaceOnUse"
       id="clipPath24598">
      <g
         id="g24604">
        <g
           id="g24602">
          <path
             d="M -56.442049,-160.30478 H 153.55985 V 136.6953 H -56.442049 Z"
             id="path24600"
             style="stroke-width:0.352778" />
        </g>
      </g>
    </clipPath>
    <clipPath
       clipPathUnits="userSpaceOnUse"
       id="clipPath24613">
      <g
         id="g24619">
        <g
           id="g24617">
          <path
             d="M -56.442049,-160.30478 H 153.55985 V 136.6953 H -56.442049 Z"
             id="path24615"
             style="stroke-width:0.352778" />
        </g>
      </g>
    </clipPath>
    <clipPath
       clipPathUnits="userSpaceOnUse"
       id="clipPath24628">
      <g
         id="g24634">
        <g
           id="g24632">
          <path
             d="M -56.442049,-160.30478 H 153.55985 V 136.6953 H -56.442049 Z"
             id="path24630"
             style="stroke-width:0.352778" />
        </g>
      </g>
    </clipPath>
    <clipPath
       clipPathUnits="userSpaceOnUse"
       id="clipPath24643">
      <g
         id="g24649">
        <g
           id="g24647">
          <path
             d="M -56.442049,-160.30478 H 153.55985 V 136.6953 H -56.442049 Z"
             id="path24645"
             style="stroke-width:0.352778" />
        </g>
      </g>
    </clipPath>
    <clipPath
       clipPathUnits="userSpaceOnUse"
       id="clipPath24748">
      <g
         id="g24754">
        <g
           id="g24752">
          <path
             d="M -56.442049,-160.30478 H 153.55985 V 136.6953 H -56.442049 Z"
             id="path24750"
             style="stroke-width:0.352778" />
        </g>
      </g>
    </clipPath>
  </defs>
  <g
     inkscape:label="Layer 1"
     inkscape:groupmode="layer"
     id="layer1"
     transform="translate(-116.65824,-106.95217)">
    <path
       style="fill:#d10019;fill-opacity:1;fill-rule:evenodd;stroke:none;stroke-width:0.441638"
       d="m 116.65824,121.50928 h 0.18521 v -14.55711 h -0.18521 z"
       id="path26928" />
    <path
       id="path184"
       clip-path="none"
       style="fill:#8b9093;fill-opacity:1;fill-rule:nonzero;stroke:none;stroke-width:0.352778"
       d="m 127.23175,109.16142 c -0.44731,0 -0.86018,0.0869 -1.23765,0.26045 -0.37783,0.17392 -0.70625,0.40905 -0.98495,0.70538 -0.2794,0.29633 -0.49673,0.63859 -0.65371,1.02629 -0.15664,0.38735 -0.23461,0.79494 -0.23461,1.22215 0,0.50165 0.0953,0.94344 0.28681,1.3255 0.19191,0.38171 0.43034,0.71124 0.71468,0.99064 0.30798,0.29633 0.63475,0.51007 0.98082,0.6413 0.34573,0.13088 0.70196,0.19637 1.06815,0.19637 0.19755,0 0.37756,-0.0151 0.54054,-0.0465 0.16263,-0.0314 0.30889,-0.0668 0.43977,-0.10697 0.13089,-0.0395 0.24686,-0.075 0.34881,-0.10646 0.1016,-0.0314 0.19605,-0.0475 0.28319,-0.0475 0.11042,0 0.1917,0.0188 0.24391,0.0558 0.0501,0.0356 0.0948,0.0755 0.13436,0.11886 h 0.13591 v -1.81591 h -0.0956 c -0.0582,0.21661 -0.12553,0.4348 -0.20102,0.65422 -0.0755,0.21837 -0.18591,0.41502 -0.33125,0.58859 -0.14535,0.17427 -0.33739,0.31544 -0.57516,0.42375 -0.23848,0.1083 -0.55208,0.16226 -0.94154,0.16226 -0.30198,0 -0.57826,-0.0454 -0.82838,-0.13642 -0.24977,-0.091 -0.46334,-0.2508 -0.64078,-0.47904 -0.1771,-0.2279 -0.31515,-0.53734 -0.41393,-0.93069 -0.0988,-0.393 -0.1478,-0.8891 -0.1478,-1.48777 0,-0.2106 0.007,-0.43405 0.0217,-0.67076 0.0145,-0.23671 0.0449,-0.47053 0.0915,-0.70125 0.0466,-0.23072 0.11433,-0.45006 0.20464,-0.65784 0.09,-0.20814 0.2104,-0.39079 0.36174,-0.54777 0.15099,-0.15664 0.33726,-0.28201 0.5581,-0.3762 0.22049,-0.0938 0.48577,-0.14108 0.79375,-0.14108 0.33125,0 0.60885,0.0501 0.83251,0.14883 0.22366,0.0995 0.40812,0.22959 0.55346,0.39222 0.14499,0.16263 0.25837,0.34938 0.33951,0.56069 0.0815,0.21096 0.14845,0.4247 0.20102,0.64131 h 0.0956 v -1.70636 h -0.13539 c -0.0395,0.0438 -0.0826,0.0839 -0.13022,0.11989 -0.0494,0.037 -0.1325,0.0553 -0.24857,0.0553 -0.0875,0 -0.17749,-0.0169 -0.27027,-0.0512 -0.0931,-0.0342 -0.19447,-0.0726 -0.30489,-0.11523 -0.11042,-0.0423 -0.2353,-0.0808 -0.37465,-0.11473 -0.1397,-0.0335 -0.29981,-0.0501 -0.48008,-0.0501 z m -6.30917,0.13281 c -0.0695,0 -0.13927,6.1e-4 -0.20877,0.004 -0.0698,0.003 -0.14001,0.004 -0.20981,0.004 -0.0695,0.005 -0.13979,0.01 -0.20929,0.0119 -0.0698,0.003 -0.13939,0.004 -0.20929,0.004 h -1.65726 v 0.11937 h 0.96841 v 5.83892 h -0.96841 v 0.11989 h 2.80861 v -0.12247 h -0.96841 v -3.0763 h 0.87281 c 0.0984,0 0.21476,0.007 0.34882,0.0212 0.1337,0.0145 0.26321,0.0586 0.38809,0.13229 0.12524,0.0741 0.23453,0.19091 0.32763,0.35036 0.0928,0.15946 0.15084,0.38177 0.17414,0.66611 l 0.0615,0.77722 c 0.0173,0.21626 0.0477,0.40564 0.0915,0.56792 0.0437,0.16227 0.11205,0.29867 0.20515,0.40979 0.0928,0.11113 0.21636,0.19578 0.37052,0.25218 0.15381,0.0568 0.34785,0.0853 0.58033,0.0853 0.12241,0 0.22536,-0.007 0.31006,-0.0222 0.0843,-0.0152 0.15522,-0.0344 0.21342,-0.0584 0.0582,-0.0237 0.10586,-0.0488 0.14366,-0.0749 0.0377,-0.0261 0.0719,-0.0505 0.10077,-0.0734 l -0.0791,-0.0935 c -0.0638,0.0628 -0.13606,0.10783 -0.21756,0.13643 -0.0815,0.0282 -0.15985,0.0429 -0.23565,0.0429 -0.16863,0 -0.2911,-0.0597 -0.3669,-0.17932 -0.0755,-0.11924 -0.13058,-0.25268 -0.16588,-0.40049 -0.0229,-0.0967 -0.0395,-0.21543 -0.0475,-0.3576 -0.009,-0.14182 -0.0184,-0.28993 -0.0264,-0.44339 -0.008,-0.15311 -0.0206,-0.30236 -0.0351,-0.447 -0.0145,-0.14499 -0.039,-0.2745 -0.0739,-0.38809 -0.0582,-0.19297 -0.15692,-0.35078 -0.29662,-0.47284 -0.13935,-0.12241 -0.29204,-0.21994 -0.45785,-0.29404 -0.1658,-0.0737 -0.32905,-0.12621 -0.48886,-0.15761 -0.16016,-0.0311 -0.28621,-0.0528 -0.37931,-0.0641 v -0.0181 c 0.33726,-0.0399 0.60777,-0.11836 0.81132,-0.23513 0.2032,-0.11642 0.35853,-0.24462 0.46613,-0.38396 0.10795,-0.13935 0.1777,-0.27609 0.2098,-0.40979 0.0321,-0.1337 0.0481,-0.24296 0.0481,-0.32866 0,-0.17039 -0.0423,-0.35255 -0.12661,-0.54622 -0.0843,-0.19332 -0.22846,-0.36658 -0.43201,-0.52039 -0.22684,-0.17639 -0.47101,-0.28339 -0.73277,-0.32039 -0.26176,-0.037 -0.56418,-0.0553 -0.90744,-0.0553 z m -0.0615,0.11989 c 0.15099,0 0.3037,0.0143 0.45786,0.0429 0.15381,0.0282 0.29283,0.0883 0.41806,0.17931 0.12489,0.091 0.22659,0.2261 0.30489,0.40566 0.0786,0.17921 0.11782,0.41716 0.11782,0.71314 0,0.26176 -0.0264,0.4778 -0.0786,0.64854 -0.0522,0.17075 -0.1262,0.30564 -0.2222,0.40514 -0.096,0.0998 -0.21099,0.16939 -0.34469,0.20929 -0.13335,0.0398 -0.28127,0.06 -0.4439,0.06 h -0.80201 v -2.63809 c 0.0755,-0.0113 0.1668,-0.0187 0.2744,-0.0217 0.1076,-0.003 0.21354,-0.004 0.31832,-0.004 z" />
    <path
       d="m 131.66326,115.2795 c 0.0695,0.006 0.14676,0.0131 0.23107,0.0212 0.0843,0.008 0.20496,0.0131 0.3623,0.0131 0.2734,0 0.5073,-0.0258 0.70203,-0.0769 0.19509,-0.0512 0.35489,-0.14111 0.47978,-0.26881 0.12523,-0.12841 0.2166,-0.29739 0.27481,-0.508 0.0582,-0.21061 0.0875,-0.47555 0.0875,-0.79446 0,-0.45508 -0.0991,-0.8135 -0.29669,-1.07562 -0.1979,-0.26176 -0.49142,-0.39264 -0.88123,-0.39264 h -0.95956 z m 0,-3.20181 h 0.80222 c 0.16298,0 0.31115,-0.0198 0.44485,-0.06 0.1337,-0.0399 0.24871,-0.10936 0.34466,-0.20885 0.096,-0.0998 0.17004,-0.23495 0.22261,-0.40569 0.0522,-0.17075 0.0783,-0.387 0.0783,-0.64911 0,-0.29563 -0.0395,-0.5334 -0.11783,-0.71261 -0.0783,-0.17922 -0.18026,-0.31468 -0.30515,-0.4057 -0.12523,-0.091 -0.26458,-0.15063 -0.41875,-0.17921 -0.15416,-0.0282 -0.30656,-0.0427 -0.4579,-0.0427 -0.10478,0 -0.21096,0.001 -0.31856,0.004 -0.10724,0.003 -0.19897,0.01 -0.27446,0.0212 z m -1.84221,3.19864 h 0.96909 v -5.83918 h -0.96909 v -0.11924 h 1.52789 c 0.0871,0 0.17603,-0.001 0.26634,-0.004 0.0903,-0.002 0.18204,-0.006 0.27517,-0.012 0.0931,0 0.18344,-0.001 0.27058,-0.004 0.0875,-0.002 0.17145,-0.004 0.25329,-0.004 0.42475,0 0.77435,0.0497 1.04775,0.14922 0.27376,0.0995 0.48895,0.2219 0.64594,0.36689 0.15734,0.145 0.26494,0.30163 0.32314,0.46955 0.0582,0.16757 0.0875,0.31962 0.0875,0.45614 0,0.18768 -0.0423,0.36125 -0.127,0.5207 -0.0843,0.15911 -0.19791,0.29845 -0.34043,0.41804 -0.14287,0.11924 -0.30762,0.21626 -0.49389,0.28999 -0.18662,0.0737 -0.3817,0.12241 -0.58561,0.14499 v 0.0169 c 0.2092,0.0169 0.42298,0.061 0.64135,0.13194 0.21802,0.0713 0.41593,0.17075 0.59337,0.2988 0.17745,0.12806 0.32139,0.28575 0.4318,0.47343 0.11078,0.18768 0.16581,0.40393 0.16581,0.64841 0,0.25576 -0.0494,0.49036 -0.14852,0.70379 -0.0988,0.21343 -0.24694,0.39652 -0.44485,0.54998 -0.19791,0.15381 -0.44768,0.27446 -0.75036,0.36265 -0.30268,0.0882 -0.6544,0.1323 -1.05586,0.1323 -0.0815,0 -0.16122,-10e-4 -0.23989,-0.004 -0.0787,-0.003 -0.16158,-0.007 -0.24871,-0.012 -0.0871,-0.006 -0.17745,-0.01 -0.27058,-0.012 -0.0928,-0.003 -0.19191,-0.004 -0.29669,-0.004 h -1.52753 z"
       style="fill:#d10019;fill-opacity:1;fill-rule:nonzero;stroke:none;stroke-width:0.352778"
       id="path188"
       clip-path="none" />
    <path
       id="path72"
       clip-path="none"
       style="fill:#8b9093;fill-opacity:1;fill-rule:nonzero;stroke:none;stroke-width:0.352778"
       d="m 127.65887,117.07606 c -0.1517,0 -0.29475,0.0722 -0.40411,0.19172 -0.10302,0.11219 -0.16743,0.2654 -0.16743,0.43615 0,0.17638 0.0644,0.32585 0.1664,0.43098 0.10054,0.10372 0.23932,0.1664 0.38396,0.1664 0.10301,0 0.20211,-0.0261 0.27337,-0.0677 0.0402,-0.0229 0.0678,-0.008 0.0827,0.0202 h 0.0372 v -0.29662 h -0.0336 c -0.0572,0.19685 -0.19043,0.29507 -0.36329,0.29507 -0.10195,0 -0.1888,-0.0503 -0.24701,-0.13074 -0.0476,-0.0663 -0.0987,-0.19821 -0.0987,-0.38447 0,-0.21414 0.0479,-0.37242 0.10542,-0.46767 0.0589,-0.097 0.14639,-0.154 0.25787,-0.154 0.15734,0 0.28009,0.0974 0.33125,0.29249 h 0.0367 v -0.27802 h -0.0269 c -0.0159,0.0314 -0.0433,0.0439 -0.093,0.016 -0.0769,-0.0434 -0.1611,-0.0698 -0.24082,-0.0698 z m -3.89536,0.005 c -0.0769,0.0116 -0.15231,0.0176 -0.22531,0.0176 h -0.0289 v 0.0362 h 0.11627 v 0.57361 c -0.0416,-0.0875 -0.11452,-0.13229 -0.21859,-0.13229 -0.0907,0 -0.1689,0.0344 -0.231,0.10284 -0.0624,0.0688 -0.0946,0.15352 -0.0946,0.25476 0,0.10125 0.0316,0.18612 0.0941,0.25632 0.0621,0.0698 0.13856,0.10438 0.22996,0.10438 0.0988,0 0.17302,-0.0431 0.22272,-0.13022 l 0.001,0.12454 c 0.0568,-0.0109 0.13347,-0.0155 0.23047,-0.0155 v -0.0413 h -0.0961 z m -2.80965,0.0176 -0.49455,5.2e-4 v 0.0444 h 0.13126 l 5.2e-4,1.0852 h -0.13849 v 0.0439 h 0.44648 v -0.0439 h -0.13539 v -0.57051 h 0.10232 c 0.084,0 0.15047,0.0268 0.19947,0.0801 0.0226,0.0254 0.037,0.0565 0.046,0.0935 0.003,0.0191 0.006,0.0561 0.008,0.11007 0.006,0.12383 0.0261,0.21347 0.061,0.27027 0.0367,0.0607 0.0934,0.0915 0.16846,0.0915 0.0501,0 0.12082,-0.013 0.17622,-0.0455 l -0.014,-0.0367 c -0.0332,0.0156 -0.0637,0.0233 -0.0909,0.0233 -0.0438,0 -0.0737,-0.0211 -0.0889,-0.061 -0.009,-0.024 -0.0139,-0.0642 -0.0139,-0.12144 -0.003,-0.0727 -0.006,-0.12499 -0.0109,-0.15709 -0.01,-0.0646 -0.0402,-0.11872 -0.0935,-0.16382 -0.0522,-0.0444 -0.12255,-0.0814 -0.20825,-0.0966 0.11218,-0.005 0.19041,-0.0405 0.25321,-0.0909 0.0624,-0.0504 0.0935,-0.11546 0.0935,-0.19586 0,-0.0811 -0.0349,-0.14426 -0.10439,-0.19016 -0.0699,-0.0459 -0.16229,-0.0692 -0.29352,-0.0692 z m -0.19069,0.045 h 0.15245 c 0.0948,0 0.15058,0.0133 0.18448,0.0408 0.0395,0.0321 0.0589,0.0938 0.0589,0.18449 0,0.0977 -0.024,0.16372 -0.0713,0.19792 -0.042,0.03 -0.10932,0.0455 -0.22221,0.0455 h -0.10232 z m 9.31364,0.22427 c -0.0236,0.005 -0.0524,0.007 -0.0873,0.007 -0.0198,0 -0.0358,-0.001 -0.046,-0.002 v 0.21652 h -0.0997 v 0.0372 h 0.0997 v 0.52193 c 0,0.0966 0.0471,0.14573 0.14056,0.14573 0.0723,0 0.13368,-0.0363 0.18448,-0.10645 l -0.0279,-0.0212 c -0.0324,0.0434 -0.064,0.0646 -0.0961,0.0646 -0.0303,0 -0.0509,-0.0106 -0.0589,-0.03 -0.005,-0.0124 -0.009,-0.035 -0.009,-0.0682 v -0.50643 h 0.15813 v -0.0372 h -0.15813 z m -0.60978,0.20361 c -0.12312,0 -0.21061,0.0672 -0.26251,0.2005 l -0.001,-0.19843 c -0.0593,0.0105 -0.1254,0.0155 -0.1974,0.0155 h -0.0326 v 0.0377 h 0.0961 v 0.6041 h -0.0961 v 0.0413 h 0.32867 v -0.0413 h -0.0946 v -0.30903 c 0,-0.0833 0.0209,-0.15404 0.0636,-0.21084 0.0413,-0.0575 0.0916,-0.0858 0.14728,-0.0858 0.0737,0 0.11007,0.0438 0.11007,0.13229 v 0.47336 h -0.10129 v 0.0413 h 0.32918 l -5.2e-4,-0.0413 h -0.092 v -0.46767 c 0,-0.0607 -0.0169,-0.1084 -0.0522,-0.1416 -0.0349,-0.0332 -0.0833,-0.0501 -0.1447,-0.0501 z m 2.82257,0 c -0.0986,0.004 -0.17426,0.0619 -0.22686,0.17363 v -0.17105 c -0.0762,0.01 -0.15314,0.0145 -0.23254,0.0145 v 0.0382 h 0.0941 v 0.6041 h -0.0925 v 0.0413 h 0.31626 v -0.0413 h -0.0904 v -0.28732 c 0,-0.0903 0.0209,-0.16853 0.0615,-0.23203 0.0405,-0.0614 0.0856,-0.0915 0.13746,-0.0915 0.0631,0 0.0946,0.035 0.0946,0.10697 v 0.50333 h -0.0971 v 0.0419 h 0.32195 v -0.0419 h -0.0884 v -0.33538 c 0,-0.0723 0.0199,-0.13587 0.0615,-0.19017 0.0413,-0.0547 0.0885,-0.0806 0.14211,-0.0806 0.0607,0 0.091,0.034 0.091,0.10283 v 0.50333 h -0.10077 v 0.0419 l 0.32608,-5.2e-4 v -0.0413 h -0.0889 v -0.4408 c 0,-0.14395 -0.0644,-0.21549 -0.19172,-0.21549 -0.11006,0 -0.18874,0.0572 -0.23564,0.1726 -0.006,-0.11673 -0.0705,-0.17518 -0.19224,-0.17518 -0.003,0 -0.006,-1.2e-4 -0.009,0 z m -7.99073,0.002 c -0.091,0.002 -0.1686,0.0374 -0.23254,0.10438 -0.0656,0.0688 -0.0987,0.15353 -0.0987,0.25477 0,0.10301 0.0322,0.18803 0.0961,0.25683 0.0642,0.0684 0.14496,0.10283 0.24236,0.10283 0.0935,0 0.17359,-0.035 0.24029,-0.1049 0.0659,-0.0695 0.0992,-0.15506 0.0992,-0.25631 0,-0.10301 -0.0313,-0.18719 -0.0966,-0.25529 -0.0635,-0.0678 -0.14363,-0.10231 -0.24133,-0.10231 -0.003,0 -0.006,-7e-5 -0.009,0 z m 4.24832,0 c -0.0988,0 -0.18149,0.0363 -0.24959,0.10903 -0.068,0.0723 -0.10232,0.16202 -0.10232,0.2682 0,0.0956 0.033,0.17618 0.0997,0.24288 0.0677,0.0656 0.14898,0.0992 0.24598,0.0992 0.17322,0 0.27774,-0.0807 0.31264,-0.23978 h -0.0382 c -0.036,0.12948 -0.12075,0.19431 -0.25269,0.19431 -0.0765,0 -0.12832,-0.024 -0.15762,-0.0734 -0.0293,-0.0487 -0.045,-0.13013 -0.045,-0.24443 v -0.0517 h 0.49765 c -0.0178,-0.20287 -0.12164,-0.30437 -0.31058,-0.30437 z m 2.61328,0 c -0.0473,0.0105 -0.11025,0.0155 -0.18965,0.0155 h -0.0388 v 0.0377 h 0.10129 v 0.46457 c 0,0.0702 0.0151,0.12123 0.0465,0.15193 0.0325,0.0311 0.0844,0.0465 0.15813,0.0465 0.11359,0 0.19682,-0.0501 0.25012,-0.14986 v 0.14779 c 0.0519,-0.0102 0.11577,-0.0155 0.19017,-0.0155 h 0.0372 v -0.0413 h -0.0941 v -0.65732 c -0.0688,0.0105 -0.1393,0.0155 -0.2098,0.0155 h -0.0305 v 0.0377 h 0.10335 v 0.36484 c 0,0.072 -0.0197,0.12968 -0.0589,0.17518 -0.0402,0.0451 -0.0881,0.0682 -0.14211,0.0682 -0.0525,0 -0.0862,-0.0115 -0.10284,-0.0341 -0.0131,-0.018 -0.0202,-0.0546 -0.0202,-0.10956 z m -4.96611,5.1e-4 c -0.0988,0 -0.18119,0.0367 -0.24959,0.10904 -0.0681,0.0727 -0.10181,0.1622 -0.10181,0.26768 0,0.0956 0.0329,0.17637 0.10026,0.24237 0.0663,0.0659 0.14898,0.0992 0.24598,0.0992 0.17251,0 0.27652,-0.0798 0.31212,-0.23926 h -0.0393 c -0.0356,0.13049 -0.11988,0.19482 -0.25218,0.19482 -0.0755,0 -0.12832,-0.0244 -0.15762,-0.0734 -0.03,-0.0483 -0.0444,-0.13013 -0.0444,-0.24443 v -0.0522 h 0.49713 c -0.018,-0.20249 -0.12149,-0.30456 -0.31058,-0.30386 z m 4.39715,0 c -0.0748,0.0105 -0.15841,0.0155 -0.25011,0.0155 v 0.0372 h 0.11317 v 0.6041 h -0.11679 v 0.0419 h 0.38706 v -0.0419 h -0.13023 v -0.34675 c 0,-0.0596 0.0191,-0.11768 0.0558,-0.17518 0.0346,-0.0529 0.0669,-0.0801 0.0971,-0.0801 0.005,0 0.007,0.005 0.007,0.0129 0,0.002 -0.001,0.006 -0.002,0.0119 0,0.006 -0.001,0.0115 -0.001,0.0165 0,0.019 0.007,0.0358 0.0207,0.0506 0.0149,0.0142 0.0324,0.0222 0.0532,0.0222 0.0494,0 0.0749,-0.0242 0.0749,-0.0729 0,-0.0611 -0.0339,-0.0915 -0.10129,-0.0915 -0.0804,0 -0.14954,0.0564 -0.20774,0.17002 z m -7.953,5.2e-4 c -0.084,0 -0.15194,0.0165 -0.20309,0.0486 -0.0505,0.0328 -0.076,0.0728 -0.076,0.11938 0,0.0554 0.0247,0.0837 0.0744,0.0837 0.0469,0 0.0713,-0.0248 0.0713,-0.0749 0,-0.0201 -0.008,-0.0381 -0.0253,-0.0543 -0.0162,-0.0159 -0.0248,-0.0254 -0.0248,-0.0279 0,-0.0127 0.0145,-0.0266 0.0413,-0.0403 0.0272,-0.0138 0.0606,-0.0202 0.1018,-0.0202 0.0924,0 0.13953,0.0334 0.13953,0.0997 v 0.16847 c -0.14041,0.001 -0.24988,0.0244 -0.32608,0.0713 -0.0762,0.0466 -0.11472,0.10856 -0.11472,0.18758 0,0.0476 0.0181,0.0861 0.0527,0.11576 0.0353,0.0293 0.0828,0.0434 0.14314,0.0434 0.11571,0 0.19864,-0.0382 0.24908,-0.11576 0.005,0.0617 0.0411,0.0981 0.0884,0.11007 -0.0871,0.0773 -0.14056,0.14151 -0.14056,0.21136 0,0.0536 0.0162,0.0903 0.0532,0.11989 0.0328,0.0275 0.0767,0.0413 0.13074,0.0413 0.0547,0 0.12414,-0.0181 0.17776,-0.11265 l -0.0305,-0.0171 c -0.0356,0.0504 -0.072,0.077 -0.10903,0.077 -0.0589,0 -0.0889,-0.0436 -0.0889,-0.13074 0,-0.0392 0.005,-0.0724 0.0227,-0.11369 0.0187,-0.0416 0.0493,-0.071 0.0816,-0.0904 0.0437,-0.0261 0.0682,-0.0661 0.0724,-0.11834 l -0.0279,-0.003 c -0.01,0.0444 -0.0303,0.0661 -0.062,0.0661 -0.0236,0 -0.0357,-0.0216 -0.0357,-0.0661 v -0.38861 c 0,-0.0691 -0.0157,-0.11769 -0.0481,-0.14521 -0.0353,-0.03 -0.0976,-0.0444 -0.18758,-0.0444 z m -0.98805,0.0155 -0.0103,0.22945 h 0.0419 c 0.0166,-0.12845 0.0681,-0.19172 0.15348,-0.19172 h 0.17001 l -0.40979,0.61288 v 0.032 h 0.55759 l 0.0108,-0.25167 h -0.0398 c -0.0261,0.14001 -0.0853,0.21033 -0.1788,0.21033 h -0.18862 l 0.40824,-0.60048 v -0.0408 z m 3.06751,0 v 0.0372 h 0.0961 l 0.20257,0.66662 h 0.0548 l 0.16536,-0.50694 0.17363,0.50694 h 0.0496 l 0.20671,-0.66662 h 0.091 v -0.0372 h -0.25993 v 0.0372 h 0.12144 l -0.14056,0.46095 -0.1695,-0.49816 h -0.0527 l -0.16382,0.50023 -0.14211,-0.46302 h 0.10336 v -0.0372 z m 3.82716,0.0155 c 0.10161,0 0.15296,0.0674 0.15296,0.20361 v 0.0181 l -0.33332,5.1e-4 c 0.008,-0.14749 0.0685,-0.22221 0.18036,-0.22221 z m -2.36265,5.2e-4 c 0.003,-1.4e-4 0.007,0 0.0103,0 0.10125,0 0.15297,0.0678 0.15297,0.20361 v 0.0181 h -0.33332 c 0.008,-0.14318 0.0648,-0.2172 0.17002,-0.22169 z m -1.88774,0.006 c 0.004,-2e-4 0.009,0 0.0129,0 0.072,0 0.12073,0.0269 0.14573,0.0816 0.0192,0.0444 0.0284,0.12421 0.0284,0.24133 0,0.11395 -0.0115,0.19443 -0.0341,0.24133 -0.0254,0.0547 -0.0732,0.0817 -0.14159,0.0817 -0.0712,0 -0.11918,-0.0281 -0.14418,-0.0842 -0.0201,-0.0437 -0.0305,-0.12405 -0.0305,-0.24082 0,-0.11535 0.0119,-0.19601 0.0341,-0.24081 0.0231,-0.0503 0.0666,-0.077 0.12919,-0.0801 z m -0.88729,0.004 c 0.004,-1.9e-4 0.008,0 0.0119,0 0.0557,0 0.10494,0.0209 0.14624,0.0625 0.0412,0.0416 0.0615,0.0901 0.0615,0.14624 v 0.23926 c 0,0.0472 -0.0207,0.0914 -0.062,0.13126 -0.0413,0.0395 -0.0881,0.06 -0.14005,0.06 -0.0678,0 -0.11597,-0.027 -0.14417,-0.0806 -0.0247,-0.0487 -0.0367,-0.13013 -0.0367,-0.24443 0,-0.11183 0.0127,-0.19251 0.0388,-0.24081 0.0241,-0.0463 0.066,-0.0706 0.12454,-0.0734 z m -0.68833,0.30024 c 0.006,-1.1e-4 0.0122,0 0.0186,0 v 0.16691 c 0,0.0427 -0.0161,0.0767 -0.0496,0.10284 -0.0335,0.0251 -0.074,0.0382 -0.12196,0.0382 -0.0416,0 -0.0741,-0.0124 -0.0977,-0.0367 -0.0236,-0.0236 -0.0357,-0.056 -0.0357,-0.0966 0,-0.11312 0.0953,-0.17117 0.28628,-0.17467 z m -1.39268,1.05162 v 0.0444 h 0.12765 v 1.0852 h -0.12765 v 0.0444 h 0.43977 c 0.14887,0 0.26362,-0.0279 0.34262,-0.0847 0.079,-0.0568 0.11782,-0.13562 0.11782,-0.23616 0,-0.0727 -0.0285,-0.13708 -0.0853,-0.19068 -0.0571,-0.0543 -0.13643,-0.0934 -0.23874,-0.10956 0.0924,-0.0159 0.16299,-0.0519 0.21239,-0.0992 0.0494,-0.049 0.0739,-0.1085 0.0739,-0.1819 0,-0.18094 -0.13838,-0.27181 -0.41496,-0.27181 z m 7.4905,0.0387 c -0.0212,0.002 -0.0479,0.0195 -0.0791,0.0522 l -0.25012,0.26045 h 0.0506 l 0.29352,-0.17881 c 0.0353,-0.0229 0.0527,-0.0464 0.0527,-0.0729 0,-0.0405 -0.0206,-0.061 -0.0636,-0.061 -0.001,0 -0.003,-1.3e-4 -0.004,0 z m -3.88141,5.2e-4 c -0.0229,8.8e-4 -0.0419,0.009 -0.0584,0.0253 -0.0181,0.0162 -0.0258,0.0366 -0.0258,0.062 0,0.024 0.008,0.044 0.0258,0.062 0.0176,0.0172 0.0381,0.0274 0.0631,0.0274 0.0247,0 0.0457,-0.01 0.063,-0.0274 0.0168,-0.018 0.0258,-0.038 0.0258,-0.062 0,-0.0243 -0.009,-0.0444 -0.0269,-0.062 -0.0173,-0.0174 -0.0384,-0.0253 -0.062,-0.0253 -0.002,0 -0.003,-6e-5 -0.005,0 z m -3.30781,0.005 h 0.12506 c 0.0956,0 0.16122,0.0147 0.19792,0.045 0.0388,0.0332 0.0589,0.0959 0.0589,0.18758 0,0.0981 -0.0173,0.16557 -0.0522,0.20257 -0.0346,0.037 -0.10103,0.0548 -0.19843,0.0548 h -0.13126 z m 8.45581,0.22582 c -0.0236,0.004 -0.0522,0.006 -0.0868,0.006 -0.0205,0 -0.0358,-5.5e-4 -0.046,-0.002 v 0.216 h -0.10025 v 0.0377 h 0.10025 v 0.52193 c 0,0.097 0.0464,0.14521 0.14056,0.14521 0.0723,0 0.13317,-0.0352 0.18397,-0.10542 l -0.0289,-0.0212 c -0.0314,0.0427 -0.0635,0.0641 -0.0956,0.0641 -0.0303,0 -0.0509,-0.01 -0.0589,-0.0305 -0.005,-0.0117 -0.008,-0.0345 -0.008,-0.0677 v -0.50643 h 0.15865 v -0.0372 h -0.15865 z m -1.31155,0.20309 c -0.11743,0.004 -0.20125,0.0703 -0.25114,0.19947 l -5.2e-4,-0.19843 c -0.06,0.0109 -0.12614,0.016 -0.19844,0.016 h -0.032 v 0.0377 h 0.0961 v 0.60358 h -0.0961 v 0.0419 h 0.32815 v -0.0419 h -0.0935 v -0.30903 c 0,-0.0832 0.0209,-0.15404 0.0625,-0.21084 0.0416,-0.0568 0.0906,-0.0863 0.1478,-0.0863 0.0727,0 0.11007,0.0441 0.11007,0.1323 v 0.47387 h -0.10129 v 0.0419 h 0.32918 v -0.0419 h -0.0925 v -0.46767 c 0,-0.0614 -0.0178,-0.10736 -0.0527,-0.14056 -0.0346,-0.0339 -0.0828,-0.0501 -0.14418,-0.0501 -0.004,0 -0.008,-1.3e-4 -0.0114,0 z m 3.01687,0.001 c -0.0839,0 -0.15125,0.0166 -0.20205,0.0491 -0.0511,0.0328 -0.0765,0.0721 -0.0765,0.11834 0,0.0565 0.0247,0.0837 0.0744,0.0837 0.047,0 0.0708,-0.0248 0.0708,-0.0749 0,-0.0197 -0.008,-0.0384 -0.0248,-0.0543 -0.0163,-0.0163 -0.0243,-0.0254 -0.0243,-0.0274 0,-0.0137 0.0135,-0.027 0.0403,-0.0408 0.0276,-0.0135 0.0611,-0.0202 0.10129,-0.0202 0.0934,0 0.14004,0.0334 0.14004,0.0997 v 0.16847 c -0.14076,10e-4 -0.24987,0.0252 -0.32607,0.0718 -0.0762,0.0462 -0.11473,0.10858 -0.11473,0.18758 0,0.0483 0.0179,0.0863 0.0532,0.11524 0.0346,0.0293 0.0823,0.0439 0.14263,0.0439 0.11607,0 0.19916,-0.0387 0.24856,-0.11627 0.007,0.0766 0.0456,0.11421 0.11369,0.11421 0.0391,0 0.0719,-0.012 0.0987,-0.0367 0.0276,-0.0243 0.0425,-0.0567 0.0465,-0.0987 l -0.0289,-0.004 c -0.009,0.0445 -0.0301,0.0656 -0.0615,0.0656 -0.0244,0 -0.0362,-0.0212 -0.0362,-0.0656 v -0.38964 c 0,-0.0695 -0.016,-0.1179 -0.0481,-0.1447 -0.0353,-0.03 -0.0975,-0.045 -0.18707,-0.045 z m -9.05267,5.1e-4 c -0.0947,0.002 -0.17455,0.0388 -0.24081,0.10956 -0.0681,0.0727 -0.10164,0.16167 -0.10129,0.2682 0,0.0949 0.0329,0.17584 0.0992,0.24184 0.0674,0.0663 0.1495,0.0997 0.24649,0.0997 0.17286,0 0.27653,-0.0802 0.31213,-0.23926 h -0.0393 c -0.0356,0.12948 -0.11973,0.19482 -0.25167,0.19482 -0.0761,0 -0.12831,-0.0245 -0.15761,-0.0739 -0.0299,-0.0483 -0.0444,-0.13013 -0.0444,-0.24443 v -0.0522 h 0.49661 c -0.0176,-0.20214 -0.12062,-0.30438 -0.31006,-0.30438 -0.003,0 -0.006,-7e-5 -0.009,0 z m 1.3441,0 c -0.0709,0.01 -0.14758,0.0151 -0.23048,0.0171 v 0.0367 h 0.0977 v 0.9958 h -0.10077 v 0.0413 h 0.35244 v -0.0413 h -0.11679 v -0.45734 c 0.0459,0.0843 0.1199,0.12661 0.22221,0.12661 0.0885,0 0.16457,-0.0338 0.22737,-0.10077 0.0632,-0.0667 0.094,-0.15216 0.094,-0.2527 0,-0.10266 -0.0309,-0.18928 -0.094,-0.25838 -0.0628,-0.0695 -0.13877,-0.10438 -0.22737,-0.10438 -0.11148,0 -0.18588,0.052 -0.22428,0.15709 z m 0.92294,0 c -0.067,0.0116 -0.1395,0.0165 -0.216,0.0165 h -0.0336 v 0.0372 h 0.11317 v 0.60409 h -0.11886 v 0.0408 h 0.35864 v -0.0408 h -0.10336 z m 0.5979,0 c -0.0981,0 -0.18098,0.0363 -0.24908,0.10904 -0.0684,0.073 -0.10232,0.16183 -0.10232,0.26872 0,0.0952 0.033,0.17584 0.0997,0.24184 0.0674,0.0659 0.1495,0.0992 0.2465,0.0992 0.17286,0 0.27653,-0.08 0.31213,-0.23978 h -0.0393 c -0.0356,0.13014 -0.1185,0.19482 -0.25114,0.19482 -0.0762,0 -0.12905,-0.0235 -0.15865,-0.0729 -0.0299,-0.0487 -0.0444,-0.131 -0.0444,-0.24495 v -0.0517 h 0.49764 c -0.018,-0.2032 -0.1213,-0.30438 -0.31109,-0.30438 z m 2.25257,0 c -0.0944,0.002 -0.17432,0.0386 -0.24029,0.10904 -0.0681,0.0727 -0.1018,0.16219 -0.1018,0.26872 0,0.0956 0.0334,0.17533 0.0997,0.24133 0.0674,0.0663 0.1495,0.0992 0.2465,0.0992 0.1725,0 0.27601,-0.0796 0.31161,-0.23874 h -0.0388 c -0.0356,0.12948 -0.11954,0.1943 -0.25218,0.1943 -0.0762,0 -0.12813,-0.0235 -0.15813,-0.0729 -0.0293,-0.049 -0.0444,-0.13065 -0.0444,-0.24495 v -0.0522 h 0.49764 c -0.0178,-0.20287 -0.12164,-0.30386 -0.31057,-0.30386 -0.003,0 -0.006,-7e-5 -0.009,0 z m 1.56373,0 c -0.063,0.002 -0.11438,0.0224 -0.15244,0.0594 -0.0416,0.0406 -0.0631,0.0906 -0.0631,0.15296 0,0.062 0.0193,0.10883 0.0574,0.13953 0.0325,0.0268 0.0903,0.0482 0.17209,0.0651 0.0988,0.0197 0.15351,0.0333 0.16691,0.0393 0.0388,0.0133 0.0589,0.0391 0.0589,0.0765 0,0.0413 -0.016,0.0763 -0.047,0.10283 -0.0314,0.0268 -0.0728,0.0398 -0.12403,0.0398 -0.12523,0 -0.20618,-0.0689 -0.24288,-0.20722 h -0.0429 v 0.23048 h 0.0362 l 0.0403,-0.0605 c 0.055,0.0547 0.11869,0.0822 0.19379,0.0822 0.079,0 0.14172,-0.022 0.18862,-0.0636 0.0472,-0.0419 0.0702,-0.10001 0.0703,-0.17208 v -5.2e-4 c -2.1e-4,-0.11186 -0.0676,-0.18049 -0.20361,-0.20516 -0.10761,-0.0205 -0.17243,-0.0343 -0.19223,-0.0413 -0.0419,-0.0152 -0.062,-0.041 -0.062,-0.077 0,-0.0367 0.0146,-0.0666 0.0439,-0.0899 0.0289,-0.024 0.0666,-0.0351 0.11421,-0.0351 0.10442,0 0.16857,0.0586 0.19327,0.17466 h 0.0377 v -0.19792 h -0.0258 l -0.0346,0.0465 c -0.0356,-0.0388 -0.0929,-0.0589 -0.17053,-0.0589 -0.004,0 -0.008,-1.6e-4 -0.0124,0 z m -3.02462,0.003 c -0.10207,0.002 -0.18689,0.0369 -0.25218,0.10593 -0.0687,0.0709 -0.10232,0.15742 -0.10232,0.26149 0,0.0998 0.0321,0.18359 0.0956,0.24959 0.0646,0.0659 0.14683,0.0992 0.24702,0.0992 0.16368,0 0.26557,-0.0783 0.30437,-0.23461 l -0.0424,5.2e-4 c -0.0374,0.12943 -0.12062,0.19482 -0.25115,0.19482 -0.0695,0 -0.1185,-0.026 -0.1478,-0.0775 -0.029,-0.0508 -0.0439,-0.13194 -0.0439,-0.24236 0,-0.11078 0.0154,-0.19275 0.0475,-0.24495 0.0321,-0.0522 0.0848,-0.0785 0.1571,-0.0785 0.0434,0 0.0789,0.007 0.10748,0.0186 0.0271,0.0123 0.0414,0.0275 0.0414,0.0444 0,0.004 -0.008,0.0165 -0.0264,0.0377 -0.0171,0.0211 -0.0253,0.0412 -0.0253,0.062 0,0.0225 0.007,0.0415 0.0217,0.0563 0.0141,0.0152 0.0319,0.0222 0.0548,0.0222 0.0578,0 0.0868,-0.0297 0.0868,-0.0879 0,-0.0522 -0.024,-0.0968 -0.0734,-0.1328 -0.049,-0.0363 -0.11224,-0.0543 -0.18914,-0.0543 -0.003,0 -0.007,-7e-5 -0.01,0 z m 0.98702,0.0129 -0.5147,0.001 -0.0109,0.22789 h 0.0424 c 0.0166,-0.12765 0.0676,-0.1912 0.15296,-0.1912 h 0.17001 l -0.41031,0.61391 v 0.0315 h 0.55811 l 0.0103,-0.2527 h -0.0388 c -0.0265,0.14076 -0.0856,0.21084 -0.17984,0.21084 h -0.18758 l 0.40824,-0.59945 z m 2.94349,0 v 0.0377 h 0.0956 l 0.20257,0.66714 h 0.0553 l 0.16485,-0.50798 0.17466,0.50746 h 0.0496 l 0.20567,-0.66662 h 0.0904 v -0.0377 h -0.2589 v 0.0377 h 0.1204 l -0.14056,0.46147 -0.16794,-0.4992 h -0.0538 l -0.16278,0.50023 -0.14262,-0.4625 h 0.10335 v -0.0377 z m -7.10241,0.001 -0.0103,0.22841 h 0.0424 c 0.0166,-0.12771 0.0676,-0.1912 0.15296,-0.1912 h 0.17054 l -0.41031,0.61339 v 0.032 h 0.55758 l 0.0114,-0.25218 h -0.0398 c -0.0254,0.14041 -0.085,0.21084 -0.1788,0.21084 h -0.18862 l 0.40876,-0.60048 v -0.0408 z m 4.63951,0.0155 c 0.10195,0 0.15296,0.0678 0.15296,0.20361 v 0.0181 h -0.33227 c 0.009,-0.14784 0.0678,-0.22169 0.17931,-0.22169 z m -5.12733,5.2e-4 c 0.003,-1.5e-4 0.007,0 0.0103,0 0.10161,0 0.15296,0.0674 0.15296,0.2036 v 0.0181 h -0.33279 c 0.008,-0.14322 0.0649,-0.21723 0.1695,-0.22169 z m 2.85615,0 c 0.003,-1.5e-4 0.007,0 0.0103,0 0.10161,0 0.15296,0.0676 0.15296,0.20309 v 0.0186 h -0.3328 c 0.008,-0.14322 0.064,-0.21723 0.1695,-0.22169 z m -1.29914,0.008 c 0.0632,0 0.10841,0.0252 0.13591,0.0749 0.0271,0.0501 0.0398,0.12957 0.0398,0.23823 4e-4,0.11289 -0.0134,0.19459 -0.0413,0.24649 -0.0275,0.0512 -0.0751,0.077 -0.14108,0.077 -0.0571,0 -0.10431,-0.0219 -0.14211,-0.0646 -0.0385,-0.0438 -0.0574,-0.10066 -0.0574,-0.17156 v -0.14108 c 0,-0.0787 0.02,-0.1422 0.0599,-0.1912 0.0395,-0.0452 0.0881,-0.0682 0.14625,-0.0682 z m -2.66237,0.0636 h 0.13849 c 0.097,0 0.16581,0.0209 0.20671,0.0646 0.0409,0.0423 0.0615,0.11507 0.0615,0.21808 0,0.10231 -0.0183,0.17222 -0.0532,0.21032 -0.0356,0.0385 -0.10173,0.0574 -0.19843,0.0574 h -0.15503 z m 10.24175,0.23668 c 0.006,-1.2e-4 0.0122,0 0.0186,0 v 0.16794 c 0,0.043 -0.0164,0.0769 -0.0496,0.10232 -0.0331,0.0261 -0.0742,0.0393 -0.12247,0.0393 -0.0413,0 -0.0741,-0.0124 -0.0977,-0.0367 -0.0236,-0.0247 -0.0357,-0.0571 -0.0357,-0.0977 0,-0.11308 0.0958,-0.17164 0.2868,-0.17518 z" />
    <path
       style="fill:#d10019;fill-opacity:1;fill-rule:evenodd;stroke:none;stroke-width:0.441633"
       d="m 136.48858,121.50928 h 0.18521 v -14.55703 h -0.18521 z"
       id="path27056" />
  </g>
</svg>
