<svg
   xmlns:dc="http://purl.org/dc/elements/1.1/"
   xmlns:cc="http://creativecommons.org/ns#"
   xmlns:rdf="http://www.w3.org/1999/02/22-rdf-syntax-ns#"
   xmlns:svg="http://www.w3.org/2000/svg"
   xmlns="http://www.w3.org/2000/svg"
   viewBox="0 0 309.05334 347.20001"
   height="347.20001"
   width="309.05334"
   xml:space="preserve"
   id="svg2"
   version="1.1"><metadata
     id="metadata8"><rdf:RDF><cc:Work
         rdf:about=""><dc:format>image/svg+xml</dc:format><dc:type
           rdf:resource="http://purl.org/dc/dcmitype/StillImage" /></cc:Work></rdf:RDF></metadata><defs
     id="defs6" /><g
     transform="matrix(1.3333333,0,0,-1.3333333,0,347.2)"
     id="g10"><g
       transform="scale(0.1)"
       id="g12"><path
         id="path14"
         style="fill:none;stroke:#181817;stroke-width:37.49119949;stroke-linecap:round;stroke-linejoin:round;stroke-miterlimit:10;stroke-dasharray:none;stroke-opacity:1"
         d="M 659.176,1968.49 H 350.813 v 308.36 z" /><path
         id="path16"
         style="fill:none;stroke:#181817;stroke-width:37.49119949;stroke-linecap:round;stroke-linejoin:round;stroke-miterlimit:10;stroke-dasharray:none;stroke-opacity:1"
         d="M 42.4453,2276.85 V 1660.12 H 350.813 v 616.73 z" /><path
         id="path18"
         style="fill:none;stroke:#181817;stroke-width:37.49119949;stroke-linecap:round;stroke-linejoin:round;stroke-miterlimit:10;stroke-dasharray:none;stroke-opacity:1"
         d="m 659.176,2585.22 v -616.73 l 308.363,-308.37 v 925.1 z" /><path
         id="path20"
         style="fill:none;stroke:#181817;stroke-width:37.49119949;stroke-linecap:round;stroke-linejoin:round;stroke-miterlimit:10;stroke-dasharray:none;stroke-opacity:1"
         d="M 967.535,1968.49 H 2299.12" /><path
         id="path22"
         style="fill:#181817;fill-opacity:1;fill-rule:nonzero;stroke:none"
         d="m 340.758,1040.67 v 306.46 h 84.64 V 887.43 H 352.434 L 117.48,1211.41 V 887.43 H 32.832 v 459.7 h 90.484 l 217.442,-306.46" /><path
         id="path24"
         style="fill:#181817;fill-opacity:1;fill-rule:nonzero;stroke:none"
         d="m 653.035,945.078 c 53.996,0 81.723,42.32 81.723,102.872 0,61.3 -27.727,103.62 -81.723,103.62 -53.269,0 -80.992,-42.32 -80.992,-103.62 0,-60.552 27.723,-102.872 80.992,-102.872 z m 0,-66.398 c -99.234,0 -169.285,69.308 -169.285,169.27 0,99.97 70.051,170.02 169.285,170.02 99.961,0 170.012,-70.05 170.012,-170.02 0,-99.962 -70.051,-169.27 -170.012,-169.27" /><path
         id="path26"
         style="fill:#181817;fill-opacity:1;fill-rule:nonzero;stroke:none"
         d="m 1094.47,1123.11 c -16.78,9.49 -31.37,13.87 -52.54,13.87 -45.235,0 -75.879,-32.11 -75.879,-90.48 V 887.43 h -87.567 v 321.79 h 87.567 v -61.3 c 11.676,36.49 45.239,70.05 89.749,70.05 19.7,0 35.75,-5.1 45.24,-13.13 l -6.57,-81.73" /><path
         id="path28"
         style="fill:#181817;fill-opacity:1;fill-rule:nonzero;stroke:none"
         d="m 1459.29,994.691 h 2.92 l 66.4,214.529 h 79.53 L 1505.99,887.43 h -84.64 l -58.38,212.34 h -2.92 l -58.37,-212.34 h -85.37 l -102.16,321.79 h 86.84 l 67.13,-214.529 h 2.92 l 58.36,214.529 h 70.79 l 59.1,-214.529" /><path
         id="path30"
         style="fill:#181817;fill-opacity:1;fill-rule:nonzero;stroke:none"
         d="m 1835.05,1034.83 -60.56,-13.15 c -37.95,-8.01 -64.94,-14.59 -64.94,-46.692 0,-21.886 16.78,-35.019 44.5,-35.019 45.97,0 81,35.019 81,86.831 z m 85.37,-69.318 c 0,-16.782 8.76,-24.813 22.62,-24.813 8.76,0 17.52,2.192 27,6.571 v -46.7 c -13.86,-10.961 -31.38,-20.429 -60.56,-20.429 -36.49,0 -59.84,21.148 -67.86,56.168 -18.25,-37.2 -62.03,-56.911 -109.45,-56.911 -67.13,0 -108,33.571 -108,89.024 0,61.288 49.62,86.838 122.59,101.428 l 88.29,17.52 v 7.28 c 0,35.77 -18.97,57.66 -56.18,57.66 -36.49,0 -56.19,-21.89 -63.49,-53.27 l -79.53,7.29 c 10.95,65.68 61.29,111.64 146.66,111.64 83.18,0 137.91,-39.39 137.91,-124.04 V 965.512" /><path
         id="path32"
         style="fill:#181817;fill-opacity:1;fill-rule:nonzero;stroke:none"
         d="m 2045.18,767.762 49.61,118.207 -133.53,323.251 h 91.94 l 87.56,-219.642 h 2.92 l 86.83,219.642 h 85.38 L 2131.28,767.762 h -86.1" /><path
         id="path34"
         style="fill:#181817;fill-opacity:1;fill-rule:nonzero;stroke:none"
         d="m 159.066,427.59 c -51.078,0 -81.7222,-28.449 -81.7222,-77.352 0,-48.148 30.6442,-76.609 81.7222,-76.609 52.539,0 83.184,28.461 83.184,76.609 0,48.903 -30.645,77.352 -83.184,77.352 z M 153.23,32.1094 c 78.805,0 134.993,18.9726 134.993,73.6996 0,33.562 -28.457,45.961 -70.782,45.961 H 117.48 c -38.6753,0 -72.2417,-12.399 -72.2417,-53.27 0,-46.6992 44.5078,-66.3906 107.9917,-66.3906 z m 5.836,211.6096 c -26.261,0 -49.613,4.371 -69.3199,13.863 -13.1289,-6.57 -26.2656,-19.703 -26.2656,-36.48 0,-19.711 10.9414,-29.922 41.5935,-29.922 h 122.582 c 67.864,0 103.614,-35.02 103.614,-83.91 C 331.27,29.1797 245.898,0 153.23,0 69.3164,0 0,29.1797 0,87.5586 0,126.238 26.9961,150.32 67.1289,159.07 c -29.1875,8.758 -40.8594,28.45 -40.8594,51.809 0,27 18.9688,45.242 44.5118,58.371 -24.8125,18.25 -39.4024,46.699 -39.4024,81.73 0,66.399 53.2617,107.258 127.6871,107.258 40.868,0 75.891,-12.41 98.512,-35.027 16.777,25.539 44.508,43.051 78.07,43.051 v -43.051 c -24.078,0 -49.613,-6.563 -64.941,-15.313 10.949,-16.058 16.781,-35.027 16.781,-56.918 0,-66.402 -53.992,-107.261 -128.422,-107.261" /><path
         id="path36"
         style="fill:#181817;fill-opacity:1;fill-rule:nonzero;stroke:none"
         d="m 555.254,404.969 c -18.238,9.492 -29.184,12.41 -48.152,12.41 -45.973,0 -83.184,-47.43 -83.184,-110.91 V 132.801 H 379.402 V 449.48 h 44.516 v -66.398 c 12.398,36.488 44.512,75.156 91.211,75.156 19.695,0 33.562,-4.386 45.238,-14.597 l -5.113,-38.672" /><path
         id="path38"
         style="fill:#181817;fill-opacity:1;fill-rule:nonzero;stroke:none"
         d="M 805.527,296.25 728.18,279.469 c -57.645,-12.41 -93.399,-24.071 -93.399,-66.399 0,-29.922 19.699,-54.73 61.293,-54.73 62.024,0 109.453,47.43 109.453,118.211 z m 42.321,-110.18 c 0,-16.789 10.215,-24.82 26.261,-24.82 7.301,0 19.707,2.93 28.457,8.031 v -24.082 c -9.48,-10.937 -19.695,-18.961 -41.586,-18.961 -31.375,0 -54,26.992 -55.453,67.121 -16.789,-37.199 -63.484,-69.308 -117.48,-69.308 -59.102,0 -98.504,32.828 -98.504,87.558 0,59.832 52.535,83.911 131.34,99.961 l 84.644,17.52 v 16.051 c 0,48.16 -28.457,78.07 -78.078,78.07 -51.078,0 -79.535,-29.91 -90.476,-70.77 l -37.95,7.289 c 12.407,56.918 59.106,98.508 127.696,98.508 78.808,0 121.129,-41.59 121.129,-119.668 v -152.5" /><path
         id="path40"
         style="fill:#181817;fill-opacity:1;fill-rule:nonzero;stroke:none"
         d="M 997.41,132.801 H 952.898 V 449.48 h 44.512 v -58.371 c 15.32,38.672 59.1,67.129 106.54,67.129 81.72,0 116.01,-53.269 116.01,-129.148 V 132.801 h -44.51 v 197.75 c 0,56.168 -29.19,92.66 -83.18,92.66 -50.35,0 -94.86,-39.402 -94.86,-100.691 V 132.801" /><path
         id="path42"
         style="fill:#181817;fill-opacity:1;fill-rule:nonzero;stroke:none"
         d="m 1314.79,416.648 h -48.88 v 21.891 l 18.97,3.652 c 29.19,5.829 35.02,19.688 41.59,50.34 l 9.49,45.25 h 22.61 V 449.48 h 91.95 v -32.832 h -91.95 V 202.121 c 0,-28.461 11.68,-42.32 40.87,-42.32 21.89,0 43.78,10.949 62.02,21.879 v -31.36 c -22.62,-17.519 -45.24,-26.269 -77.34,-26.269 -42.32,0 -69.33,21.148 -69.33,78.808 v 213.789" /><path
         id="path44"
         style="fill:#181817;fill-opacity:1;fill-rule:nonzero;stroke:none"
         d="m 1529.3,244.441 c 6.57,-54.73 43.78,-85.371 104.34,-85.371 48.89,0 83.19,18.239 83.19,55.461 0,35.028 -24.81,45.957 -69.32,53.989 l -54.73,9.492 c -55.46,9.488 -89.75,35.019 -89.75,86.097 0,56.911 47.43,94.129 116.75,94.129 81.72,0 129.16,-38.668 134.26,-113.828 l -34.29,-2.922 c -8.03,56.91 -41.6,81.723 -99.97,81.723 -45.24,0 -75.16,-20.43 -75.16,-53.992 0,-30.649 18.25,-45.969 57.65,-52.539 l 58.37,-9.489 c 62.03,-10.211 98.51,-32.109 98.51,-88.281 0,-62.031 -55.46,-94.859 -124.77,-94.859 -76.63,0 -135.73,37.949 -140.84,116.008 l 35.76,4.382" /></g></g></svg>