<svg xmlns="http://www.w3.org/2000/svg" version="1.1" xmlns:xlink="http://www.w3.org/1999/xlink" xmlns:svgjs="http://svgjs.com/svgjs" width="960" height="960"><svg version="1.1" id="SvgjsSvg1008" x="0px" y="0px" viewBox="0 0 960 960" style="enable-background:new 0 0 960 960;" xml:space="preserve" sodipodi:docname="RCB_logo-simple.svg" inkscape:export-filename="C_RCB_logo.png" inkscape:export-xdpi="51.200001" inkscape:export-ydpi="51.200001" inkscape:version="1.3.2 (091e20e, 2023-11-25, custom)" xmlns:inkscape="http://www.inkscape.org/namespaces/inkscape" xmlns:sodipodi="http://sodipodi.sourceforge.net/DTD/sodipodi-0.dtd" xmlns="http://www.w3.org/2000/svg" xmlns:svg="http://www.w3.org/2000/svg"><defs id="SvgjsDefs1007"></defs><sodipodi:namedview id="SvgjsSodipodi:namedview1006" pagecolor="#ffffff" bordercolor="#999999" borderopacity="1" inkscape:showpageshadow="0" inkscape:pageopacity="0" inkscape:pagecheckerboard="0" inkscape:deskcolor="#d1d1d1" inkscape:zoom="0.69427083" inkscape:cx="263.5859" inkscape:cy="712.25806" inkscape:window-width="2560" inkscape:window-height="1529" inkscape:window-x="-8" inkscape:window-y="-8" inkscape:window-maximized="1" inkscape:current-layer="g34"></sodipodi:namedview>
<style type="text/css" id="SvgjsStyle1005">
	.st0{fill-rule:evenodd;clip-rule:evenodd;fill:#D1121E;}
	.st1{fill:#8B9093;}
	.st2{fill:#D1121E;}
</style>
<g id="SvgjsG1004">
	
	
	
	<g id="SvgjsG1003" transform="matrix(1.2759541,0,0,1.2759541,-130.03366,-22.151736)">
		<path class="st1" d="m 103.4,527.6 h 44.3 V 260.5 H 103.4 V 255 h 75.9 c 3.2,0 6.4,-0.1 9.6,-0.2 3.2,-0.1 6.4,-0.3 9.6,-0.5 3.2,0 6.4,-0.1 9.6,-0.2 3.2,-0.1 6.4,-0.2 9.6,-0.2 15.7,0 29.5,0.8 41.5,2.5 12,1.7 23.2,6.6 33.5,14.6 9.3,7 15.9,15 19.8,23.8 3.9,8.9 5.8,17.2 5.8,25 0,3.9 -0.7,8.9 -2.2,15 -1.5,6.1 -4.7,12.4 -9.6,18.7 -4.9,6.4 -12,12.2 -21.4,17.6 -9.3,5.3 -21.7,8.9 -37.1,10.7 v 0.8 c 4.3,0.5 10,1.5 17.4,2.9 7.3,1.4 14.8,3.8 22.4,7.2 7.6,3.4 14.6,7.9 21,13.5 6.4,5.6 10.9,12.8 13.6,21.6 1.6,5.2 2.7,11.1 3.4,17.7 0.7,6.6 1.2,13.5 1.6,20.5 0.4,7 0.8,13.8 1.2,20.3 0.4,6.5 1.1,12 2.2,16.4 1.6,6.8 4.1,12.9 7.6,18.3 3.5,5.5 9.1,8.2 16.8,8.2 3.5,0 7,-0.7 10.8,-2 3.7,-1.3 7.1,-3.4 10,-6.3 l 3.6,4.3 c -1.3,1 -2.9,2.2 -4.6,3.4 -1.7,1.2 -3.9,2.3 -6.6,3.4 -2.7,1.1 -5.9,2 -9.8,2.7 -3.9,0.7 -8.6,1 -14.2,1 -10.6,0 -19.5,-1.3 -26.6,-3.9 -7.1,-2.6 -12.7,-6.4 -17,-11.5 -4.3,-5.1 -7.4,-11.3 -9.4,-18.8 -2,-7.4 -3.4,-16.1 -4.2,-26 l -2.8,-35.6 c -1.1,-13 -3.7,-23.2 -8,-30.5 -4.3,-7.3 -9.2,-12.6 -15,-16 -5.7,-3.4 -11.7,-5.4 -17.8,-6.1 -6.1,-0.7 -11.4,-1 -16,-1 H 187.7 V 527.1 H 232 v 5.6 H 103.4 Z m 84.2,-146.3 h 36.7 c 7.4,0 14.2,-0.9 20.3,-2.7 6.1,-1.8 11.4,-5 15.8,-9.6 4.4,-4.6 7.8,-10.7 10.2,-18.6 2.4,-7.8 3.6,-17.7 3.6,-29.7 0,-13.5 -1.8,-24.4 -5.4,-32.6 -3.6,-8.2 -8.2,-14.4 -14,-18.6 -5.7,-4.2 -12.1,-6.9 -19.1,-8.2 -7,-1.3 -14,-2 -20.9,-2 -4.8,0 -9.6,0.1 -14.6,0.2 -4.9,0.1 -9.1,0.5 -12.6,1 z" id="SvgjsPath1002"></path>
		<path class="st2" d="m 624.7,527.6 h 44.4 V 260.4 H 624.7 V 255 h 69.9 c 4,0 8.1,-0.1 12.2,-0.2 4.1,-0.1 8.3,-0.3 12.6,-0.5 4.3,0 8.4,-0.1 12.4,-0.2 4,-0.1 7.9,-0.2 11.6,-0.2 19.4,0 35.4,2.3 47.9,6.8 12.5,4.6 22.4,10.2 29.6,16.8 7.2,6.6 12.1,13.8 14.8,21.5 2.7,7.7 4,14.6 4,20.9 0,8.6 -1.9,16.5 -5.8,23.8 -3.9,7.3 -9.1,13.7 -15.6,19.1 -6.5,5.5 -14.1,9.9 -22.6,13.3 -8.5,3.4 -17.5,5.6 -26.8,6.6 v 0.8 c 9.6,0.8 19.4,2.8 29.3,6 10,3.3 19,7.8 27.2,13.7 8.1,5.9 14.7,13.1 19.8,21.7 5.1,8.6 7.6,18.5 7.6,29.7 0,11.7 -2.3,22.4 -6.8,32.2 -4.5,9.8 -11.3,18.1 -20.4,25.2 -9.1,7 -20.5,12.6 -34.3,16.6 -13.8,4 -29.9,6.1 -48.3,6.1 -3.7,0 -7.4,-0.1 -11,-0.2 -3.6,-0.1 -7.4,-0.3 -11.4,-0.6 -4,-0.2 -8.1,-0.4 -12.4,-0.5 -4.3,-0.1 -8.8,-0.2 -13.6,-0.2 H 624.7 Z M 709,381.3 h 36.7 c 7.5,0 14.2,-0.9 20.4,-2.7 6.1,-1.8 11.4,-5 15.8,-9.6 4.4,-4.6 7.8,-10.7 10.2,-18.6 2.4,-7.8 3.6,-17.7 3.6,-29.7 0,-13.5 -1.8,-24.4 -5.4,-32.6 -3.6,-8.2 -8.2,-14.4 -14,-18.6 -5.7,-4.2 -12.1,-6.9 -19.2,-8.2 -7.1,-1.3 -14,-2 -21,-2 -4.8,0 -9.6,0.1 -14.6,0.2 -4.9,0.1 -9.1,0.5 -12.6,1 v 120.8 z m 0,146.5 c 3.2,0.3 6.7,0.6 10.6,1 3.9,0.4 9.4,0.6 16.6,0.6 12.5,0 23.2,-1.2 32.1,-3.5 8.9,-2.3 16.2,-6.4 22,-12.3 5.7,-5.9 9.9,-13.6 12.6,-23.2 2.7,-9.6 4,-21.8 4,-36.3 0,-20.8 -4.5,-37.2 -13.6,-49.2 -9.1,-12 -22.5,-18 -40.3,-18 h -44 z" id="SvgjsPath1001"></path>
	<path class="st1" d="m 594.6,533.1 h 6.2 V 450 h -4.4 c -2.7,9.9 -5.7,19.9 -9.2,29.9 -3.5,10 -8.5,19 -15.2,26.9 -6.6,8 -15.4,14.4 -26.3,19.4 -10.9,5 -25.3,7.4 -43.1,7.4 -13.8,0 -26.5,-2.1 -37.9,-6.3 -11.4,-4.2 -21.2,-11.5 -29.3,-21.9 -8.1,-10.4 -14.4,-24.6 -18.9,-42.6 -4.5,-18 -6.8,-40.7 -6.8,-68.1 0,-9.6 0.3,-19.9 1,-30.7 0.7,-10.8 2.1,-21.5 4.2,-32.1 2.1,-10.6 5.2,-20.6 9.4,-30.1 4.1,-9.5 9.6,-17.9 16.6,-25 6.9,-7.2 15.4,-12.9 25.5,-17.2 10.1,-4.3 22.2,-6.5 36.3,-6.5 15.2,0 27.9,2.3 38.1,6.8 10.2,4.5 18.7,10.5 25.3,18 6.6,7.4 11.8,16 15.6,25.6 3.7,9.7 6.8,19.4 9.2,29.4 h 4.4 V 255 H 589 c -1.8,2 -3.8,3.8 -6,5.5 -2.3,1.7 -6.1,2.5 -11.4,2.5 -4,0 -8.1,-0.8 -12.4,-2.3 -4.3,-1.6 -8.9,-3.3 -14,-5.3 -5.1,-1.9 -10.8,-3.7 -17.2,-5.2 -6.4,-1.5 -13.7,-2.3 -21.9,-2.3 -20.5,0 -39.4,4 -56.7,11.9 -17.3,8 -32.3,18.7 -45.1,32.3 -12.8,13.6 -22.7,29.2 -29.9,46.9 -7.2,17.7 -10.8,36.4 -10.8,55.9 0,23 4.4,43.2 13.2,60.6 8.8,17.5 19.7,32.6 32.7,45.3 14.1,13.6 29,23.4 44.9,29.4 15.8,6 32.1,9 48.9,9 9,0 17.3,-0.7 24.7,-2.1 7.4,-1.4 14.2,-3.1 20.1,-4.9 6,-1.8 11.3,-3.4 16,-4.9 4.7,-1.4 9,-2.2 13,-2.2 5.1,0 8.8,0.9 11.2,2.5 2.4,1.7 4.5,3.5 6.3,5.5 z" id="SvgjsPath1000"></path></g>
	
</g>
</svg><style>@media (prefers-color-scheme: light) { :root { filter: none; } }
@media (prefers-color-scheme: dark) { :root { filter: none; } }
</style></svg>